<?xml version="1.0" encoding="UTF-8"?><svg id="Layer_2" xmlns="http://www.w3.org/2000/svg" viewBox="0 0 550.51 86.96"><defs><style>.cls-1{letter-spacing:0em;}.cls-2{fill:#1d1d1b;font-family:Overpass-Heavy, Overpass;font-size:57px;font-weight:800;}.cls-3{letter-spacing:-.02em;}.cls-4{fill:#e52421;stroke-width:0px;}.cls-5{letter-spacing:0em;}.cls-6{letter-spacing:0em;}</style></defs><g id="Layer_1-2"><text class="cls-2" transform="translate(66.42 62.44)"><tspan class="cls-5" x="0" y="0">t</tspan><tspan class="cls-6" x="22.69" y="0">o</tspan><tspan x="54.83" y="0">wn</tspan><tspan class="cls-1" x="132.98" y="0">s</tspan><tspan x="161.31" y="0">end ha</tspan><tspan class="cls-3" x="343.42" y="0">r</tspan><tspan x="367.08" y="0">per</tspan></text><path class="cls-4" d="m29.6,86.96L0,57.37l14.16-14.16,2.02,2.02h26.83s2.02-2.02,2.02-2.02l14.16,14.16-29.6,29.6ZM4.04,57.37l25.55,25.55,25.55-25.55-12.14-12.14h-26.83s-12.14,12.14-12.14,12.14Z"/><path class="cls-4" d="m42.92,45.14l-1.88-1.88c-.56-.56-.56-1.46,0-2.02s1.46-.56,2.02,0l1.88,1.88s.05.07.08.1l13.89-13.89L29.6,0,.28,29.32l13.89,13.89s.03-.05.06-.07l1.88-1.88c.56-.56,1.46-.56,2.02,0s.56,1.46,0,2.02l-1.88,1.88s-.05.04-.07.06l13.42,13.42,13.43-13.43s-.07-.05-.1-.08Zm-17.73-8.92l-3.53,3.54c-.28.28-.64.42-1.01.42s-.73-.14-1.01-.42c-.56-.56-.56-1.46,0-2.02l3.53-3.54c.56-.56,1.46-.56,2.02,0s.56,1.46,0,2.02Zm7.3-3.53c-.28.28-.64.42-1.01.42s-.73-.14-1.01-.42l-.87-.87-.87.87c-.56.56-1.46.56-2.02,0s-.56-1.46,0-2.02l2.89-2.89,2.89,2.89c.56.56.56,1.46,0,2.02Zm7.05,7.05c-.28.28-.64.42-1.01.42s-.73-.14-1.01-.42l-3.52-3.52c-.56-.56-.56-1.46,0-2.02s1.46-.56,2.02,0l3.52,3.52c.56.56.56,1.46,0,2.02Z"/></g></svg>