<?xml version="1.0" encoding="UTF-8"?><svg id="Layer_2" xmlns="http://www.w3.org/2000/svg" viewBox="0 0 215.62 316.77"><defs><style>.cls-1{fill:#e52421;stroke-width:0px;}</style></defs><g id="Layer_1-2"><path class="cls-1" d="m107.81,316.77L0,208.96l51.58-51.58,7.36,7.36h97.74s7.36-7.36,7.36-7.36l51.58,51.58-107.81,107.81ZM14.72,208.96l93.08,93.08,93.08-93.08-44.22-44.22H58.94s-44.22,44.22-44.22,44.22Z"/><path class="cls-1" d="m156.35,164.41l-6.85-6.85c-2.03-2.03-2.03-5.33,0-7.36s5.33-2.03,7.36,0l6.85,6.85c.11.11.2.24.3.37l50.61-50.61L107.81,0,1,106.81l50.6,50.6c.07-.08.12-.17.2-.25l6.85-6.85c2.03-2.03,5.33-2.03,7.36,0s2.03,5.33,0,7.36l-6.85,6.85c-.08.08-.17.13-.25.2l48.89,48.89,48.9-48.9c-.12-.1-.25-.18-.36-.3Zm-64.58-32.49l-12.88,12.88c-1.02,1.02-2.35,1.52-3.68,1.52s-2.66-.51-3.68-1.52c-2.03-2.03-2.03-5.33,0-7.36l12.88-12.88c2.03-2.03,5.33-2.03,7.36,0,2.03,2.03,2.03,5.33,0,7.36Zm26.57-12.88c-1.02,1.02-2.35,1.52-3.68,1.52s-2.66-.51-3.68-1.52l-3.17-3.17-3.17,3.17c-2.03,2.03-5.33,2.03-7.36,0s-2.03-5.33,0-7.36l10.53-10.53,10.53,10.53c2.03,2.03,2.03,5.33,0,7.36Zm25.68,25.68c-1.02,1.02-2.35,1.52-3.68,1.52s-2.66-.51-3.68-1.52l-12.84-12.84c-2.03-2.03-2.03-5.33,0-7.36,2.03-2.03,5.33-2.03,7.36,0l12.84,12.84c2.03,2.03,2.03,5.33,0,7.36Z"/></g></svg>